<?xml version="1.0" encoding="UTF-8" standalone="no"?>
<svg
   id="Layer_2"
   data-name="Layer 2"
   viewBox="0 0 1313.65 237.13"
   version="1.1"
   sodipodi:docname="logo_text_light.svg"
   inkscape:version="1.3.2 (1:1.3.2+202311252150+091e20ef0f)"
   xmlns:inkscape="http://www.inkscape.org/namespaces/inkscape"
   xmlns:sodipodi="http://sodipodi.sourceforge.net/DTD/sodipodi-0.dtd"
   xmlns:xlink="http://www.w3.org/1999/xlink"
   xmlns="http://www.w3.org/2000/svg"
   xmlns:svg="http://www.w3.org/2000/svg">
  <sodipodi:namedview
     id="namedview47"
     pagecolor="#ffffff"
     bordercolor="#000000"
     borderopacity="0.25"
     inkscape:showpageshadow="2"
     inkscape:pageopacity="0.0"
     inkscape:pagecheckerboard="0"
     inkscape:deskcolor="#d1d1d1"
     showgrid="false"
     inkscape:zoom="0.23293876"
     inkscape:cx="480.81307"
     inkscape:cy="38.636765"
     inkscape:window-width="1366"
     inkscape:window-height="646"
     inkscape:window-x="0"
     inkscape:window-y="32"
     inkscape:window-maximized="1"
     inkscape:current-layer="Layer_2" />
  <defs
     id="defs26">
    <style
       id="style2">.cls-1{fill:url(#White_Black);}.cls-2{fill:url(#White_Black-2);}.cls-3{fill:url(#White_Black-3);}.cls-4{mask:url(#mask);}.cls-5{mask:url(#mask-2);}.cls-6{mask:url(#mask-3);}.cls-7{fill:#fff;}</style>
    <linearGradient
       id="White_Black"
       x1="-3091.62"
       y1="1087.01"
       x2="-3242.36"
       y2="985.74"
       gradientTransform="translate(-1237.09 -348.5) rotate(-180)"
       gradientUnits="userSpaceOnUse">
      <stop
         offset="0"
         stop-color="#fff"
         id="stop4" />
      <stop
         offset="1"
         stop-color="#231f20"
         id="stop6" />
    </linearGradient>
    <linearGradient
       id="White_Black-2"
       x1="2944.24"
       y1="1429.35"
       x2="2458.42"
       y2="1102.96"
       gradientTransform="translate(-3177.9 -3507.38) rotate(90)"
       xlink:href="#White_Black" />
    <linearGradient
       id="White_Black-3"
       x1="3265.1"
       y1="300.42"
       x2="2779.27"
       y2="-25.97"
       gradientTransform="translate(-7226.66 -1558.39)"
       xlink:href="#White_Black" />
    <mask
       id="mask"
       x="1901.8"
       y="-1460.12"
       width="168.2"
       height="109.01"
       maskUnits="userSpaceOnUse">
      <g
         transform="translate(-0.87 -59.01)"
         id="g13">
        <rect
           class="cls-1"
           x="1907.64"
           y="-1391.65"
           width="158.25"
           height="90.1"
           transform="translate(182.2 235.84) rotate(-7.12)"
           id="rect11" />
      </g>
    </mask>
    <mask
       id="mask-2"
       x="-4497.67"
       y="-1319.24"
       width="351.34"
       height="542.08"
       maskUnits="userSpaceOnUse">
      <g
         transform="translate(-0.87 -59.01)"
         id="g18">
        <rect
           class="cls-2"
           x="-4466.32"
           y="-1244.2"
           width="290.37"
           height="510.03"
           transform="translate(89.28 -543.15) rotate(-7.12)"
           id="rect16" />
      </g>
    </mask>
    <mask
       id="mask-3"
       x="-4659.48"
       y="-1778.77"
       width="542.08"
       height="351.34"
       maskUnits="userSpaceOnUse">
      <g
         transform="translate(-0.87 -59.01)"
         id="g23">
        <rect
           class="cls-3"
           x="-4642.58"
           y="-1689.28"
           width="510.03"
           height="290.37"
           transform="translate(157.54 -555.66) rotate(-7.12)"
           id="rect21" />
      </g>
    </mask>
  </defs>
  <path
     d="m 9.05337,250.42365 q 8.4295,-34.39236 16.859,-65.7501 8.429499,-31.35774 16.858999,-60.01804 8.4295,-28.997482 16.52182,-55.634701 8.09232,-26.974399 16.18464,-52.262899 h 50.577001 q 8.09232,25.2885 16.52182,52.600079 8.4295,27.311579 16.52182,56.309061 8.09232,28.99748 16.18464,60.35522 8.09232,31.02056 15.84746,64.40138 h -49.90264 l -10.78976,-53.9488 H 68.059869 l -10.78976,53.9488 z m 67.773179,-92.38732 h 45.519301 q -2.69744,-16.859 -6.06924,-32.0321 -3.3718,-15.1731 -7.41796,-30.683382 -4.04616,-15.847459 -9.103862,-33.380819 -5.0577,17.53336 -9.10386,33.380819 -4.04616,15.510282 -7.41796,30.683382 -3.3718,15.1731 -6.406419,32.0321 z M 221.47659,250.42365 V 16.75791 h 46.53084 v 195.22722 h 100.14245 v 38.43852 z m 165.21802,0 q 8.4295,-34.39236 16.85899,-65.7501 8.4295,-31.35774 16.859,-60.01804 8.4295,-28.997482 16.52182,-55.634701 8.09232,-26.974399 16.18464,-52.262899 h 50.577 q 8.09232,25.2885 16.52182,52.600079 8.4295,27.311579 16.52182,56.309061 8.09232,28.99748 16.18464,60.35522 8.09232,31.02056 15.84746,64.40138 h -49.90264 l -10.78976,-53.9488 h -62.3783 l -10.78976,53.9488 z m 67.77317,-92.38732 h 45.5193 q -2.69744,-16.859 -6.06924,-32.0321 -3.3718,-15.1731 -7.41796,-30.683382 -4.04616,-15.847459 -9.10386,-33.380819 -5.0577,17.53336 -9.10386,33.380819 -4.04616,15.510282 -7.41796,30.683382 -3.3718,15.1731 -6.40642,32.0321 z m 137.90644,92.38732 V 20.12971 q 9.10386,-2.36026 20.2308,-3.70898 11.46412,-1.34872 22.25388,-1.6859 10.78976,-0.67436 18.20772,-0.67436 40.12442,0 64.0642,18.88208 24.27696,18.544899 24.27696,57.657778 0,20.567982 -8.4295,37.089802 -8.09232,16.52182 -27.64876,25.2885 8.76668,12.81284 18.20772,29.67184 9.77822,16.52182 18.5449,34.39236 8.76668,17.53336 14.83592,33.38082 h -48.8911 q -5.39488,-14.83592 -12.81284,-28.99748 -7.08078,-14.49874 -15.1731,-28.6603 -8.09232,-14.16156 -16.859,-28.32312 -1.34872,0 -2.69744,0 -1.01154,0 -2.36026,0 h -19.21926 v 85.9809 z m 46.53084,-124.7566 h 10.1154 q 16.18464,0 25.96286,-4.04616 10.1154,-4.38334 14.49874,-12.13848 4.72052,-8.09232 4.72052,-19.219262 0,-12.475659 -5.39488,-20.230799 -5.0577,-7.75514 -14.49874,-11.46412 -9.10386,-4.04616 -21.24234,-4.04616 -2.36026,0 -6.40642,0.33718 -4.04616,0 -7.75514,0.67436 z m 130.82566,124.7566 q 1.01154,-28.6603 2.36026,-59.34368 1.34872,-31.02056 2.69744,-61.70394 1.6859,-31.020562 3.70898,-59.680861 2.02308,-28.660299 4.72052,-52.937259 h 38.43852 q 3.70898,10.78976 9.44104,28.997479 5.73206,17.87054 11.8013,37.76416 6.40642,19.893621 11.8013,36.752621 6.40642,-18.88208 12.47566,-38.438521 6.40642,-19.89362 12.13848,-37.0898 5.73206,-17.196179 9.44104,-27.985939 h 38.43852 q 3.70898,40.798779 6.40642,79.237298 3.03462,38.101342 4.72052,76.202682 2.02308,37.76416 2.69744,78.22576 h -42.48468 q 0.33718,-30.3462 0.67436,-60.35522 0.33718,-30.3462 0.67436,-60.6924 0.33718,-30.683382 0.67436,-60.692401 l -28.6603,99.130921 H 837.84108 L 810.5295,68.683629 q 0.33718,30.009019 0.33718,60.692401 0.33718,30.3462 0.67436,60.6924 0.33718,30.00902 0.67436,60.35522 z m 183.42574,0 q 8.4295,-34.39236 16.859,-65.7501 8.4295,-31.35774 16.859,-60.01804 8.4295,-28.997482 16.52184,-55.634701 8.0923,-26.974399 16.1846,-52.262899 h 50.577 q 8.0923,25.2885 16.5218,52.600079 8.4295,27.311579 16.5219,56.309061 8.0923,28.99748 16.1846,60.35522 8.0923,31.02056 15.8475,64.40138 h -49.9027 l -10.7897,-53.9488 h -62.3783 l -10.7898,53.9488 z m 67.77314,-92.38732 h 45.5193 q -2.6974,-16.859 -6.0692,-32.0321 -3.3718,-15.1731 -7.418,-30.683382 -4.0461,-15.847459 -9.1038,-33.380819 -5.0577,17.53336 -9.1039,33.380819 -4.0461,15.510282 -7.4179,30.683382 -3.3718,15.1731 -6.4065,32.0321 z"
     id="text1"
     style="font-size:337.18px;font-family:'Ubuntu Mono';-inkscape-font-specification:'Ubuntu Mono, @wght=700';font-variation-settings:'wght' 700;stroke-width:1.56488;fill:#ffffff"
     transform="scale(1.1408555,0.87653522)"
     aria-label="ALARMA" />
</svg>
